<svg width="46" height="52" viewBox="0 0 46 52" fill="none" xmlns="http://www.w3.org/2000/svg">
<path d="M18.0354 21.8274C16.5541 21.8274 15.3846 23.0842 15.3846 24.6174C15.3846 26.1507 16.5801 27.4075 18.0354 27.4075C19.5167 27.4075 20.6861 26.1507 20.6861 24.6174C20.7121 23.0842 19.5167 21.8274 18.0354 21.8274ZM27.5208 21.8274C26.0395 21.8274 24.8701 23.0842 24.8701 24.6174C24.8701 26.1507 26.0655 27.4075 27.5208 27.4075C29.0021 27.4075 30.1716 26.1507 30.1716 24.6174C30.1716 23.0842 29.0021 21.8274 27.5208 21.8274Z" fill="#6385FF"/>
<path d="M40.1508 0.73877H5.32745C2.39086 0.73877 0 3.05123 0 5.91667V39.8998C0 42.7652 2.39086 45.0777 5.32745 45.0777H34.7973L33.42 40.4276L36.7464 43.4187L39.8909 46.2339L45.4782 51.0096V5.91667C45.4782 3.05123 43.0874 0.73877 40.1508 0.73877ZM30.1196 33.5657C30.1196 33.5657 29.184 32.4848 28.4044 31.5297C31.8088 30.5997 33.1082 28.5386 33.1082 28.5386C32.0427 29.2172 31.0292 29.6948 30.1196 30.0216C28.8202 30.5494 27.5728 30.9013 26.3514 31.1024C23.8566 31.5548 21.5697 31.4291 19.6206 31.0772C18.1393 30.8008 16.8659 30.3986 15.8004 29.9964C15.2027 29.7702 14.553 29.4937 13.9033 29.1418C13.8254 29.0915 13.7474 29.0664 13.6695 29.0161C13.6175 28.991 13.5915 28.9659 13.5655 28.9407C13.0977 28.6894 12.8379 28.5134 12.8379 28.5134C12.8379 28.5134 14.0853 30.5243 17.3857 31.4794C16.6061 32.4346 15.6445 33.5657 15.6445 33.5657C9.90126 33.3897 7.71831 29.7451 7.71831 29.7451C7.71831 21.6515 11.4605 15.0911 11.4605 15.0911C15.2027 12.3765 18.763 12.4519 18.763 12.4519L19.0229 12.7535C14.3451 14.0606 12.1882 16.0463 12.1882 16.0463C12.1882 16.0463 12.7599 15.7446 13.7214 15.3173C16.5021 14.136 18.711 13.8092 19.6206 13.7338C19.7765 13.7087 19.9065 13.6835 20.0624 13.6835C21.6476 13.4824 23.4408 13.4322 25.3119 13.6332C27.7807 13.9097 30.4314 14.6135 33.1341 16.0463C33.1341 16.0463 31.0811 14.1611 26.6632 12.854L27.0271 12.4519C27.0271 12.4519 30.5874 12.3765 34.3296 15.0911C34.3296 15.0911 38.0718 21.6515 38.0718 29.7451C38.0718 29.7451 35.8628 33.3897 30.1196 33.5657Z" fill="#6385FF"/>
</svg>
