<svg width="35" height="34" viewBox="0 0 35 34" fill="none" xmlns="http://www.w3.org/2000/svg">
<path d="M32.8741 33.4379H1.38165C0.74996 33.4379 0.237854 32.9422 0.237854 32.3308V1.84997C0.237854 1.23858 0.74996 0.74292 1.38165 0.74292H32.8741C33.5058 0.74292 34.0179 1.23858 34.0179 1.84997V32.3308C34.0179 32.9422 33.5058 33.4379 32.8741 33.4379Z" fill="#6B3CE2"/>
<path d="M12.5959 11.4111L19.558 9.16173L19.0892 11.0783C19.6925 11.2169 20.3492 11.4013 21.0747 11.6524C22.684 12.2083 24.1427 12.8543 25.4533 13.5867L28.3496 7.68064C26.9707 6.83515 25.3452 6.1564 23.4711 5.64635C21.597 5.1337 19.7202 4.87802 17.8352 4.87802C15.7679 4.87802 13.9519 5.19059 12.3872 5.8131C10.8225 6.43561 9.6179 7.33277 8.76867 8.49802C7.91876 9.66915 7.49245 11.0319 7.49245 12.5875C7.49245 14.1889 7.90525 15.4673 8.73421 16.4259C9.56047 17.3819 10.5421 18.0888 11.6805 18.5446C12.8189 19.0003 14.2377 19.4384 15.9375 19.8615C16.3955 19.9714 16.8002 20.0766 17.1792 20.1845L17.6292 18.3425L23.0374 22.4653L16.078 24.7148L16.4509 23.1827C15.5564 23.0087 14.5687 22.7217 13.4567 22.2836C11.6197 21.5584 10.0895 20.6848 8.87203 19.6627L5.90749 25.5021C7.49313 26.6804 9.37265 27.6083 11.5461 28.287C13.7168 28.9658 15.8713 29.3045 18.0082 29.3045C19.8931 29.3045 21.6058 29.0253 23.1461 28.4695C24.6865 27.9136 25.91 27.0629 26.818 25.9173C27.726 24.7723 28.1814 23.3553 28.1814 21.6643C28.1814 20.0171 27.7551 18.6897 26.9052 17.6775C26.0553 16.6652 25.0601 15.925 23.9217 15.4588C22.7833 14.9926 21.3538 14.5237 19.6303 14.0575C19.1932 13.945 18.8095 13.8371 18.4473 13.7318L18.0055 15.5353L12.5959 11.4111Z" fill="white"/>
</svg>
