<svg width="46" height="45" viewBox="0 0 46 45" fill="none" xmlns="http://www.w3.org/2000/svg">
<path d="M0 33.4909V33.4928C0.0272404 34.4708 0.0356426 35.4543 0.206072 36.4262C0.386672 37.4545 0.644836 38.4571 1.13737 39.3904C1.80326 40.6535 2.71776 41.7202 3.87211 42.5915C4.70091 43.2172 5.6063 43.7139 6.60853 44.0272C8.06996 44.4834 9.57764 44.6583 11.1073 44.6669C12.0617 44.6727 13.0155 44.6958 13.9702 44.692C20.9037 44.6637 27.8374 44.7404 34.771 44.6505C35.6911 44.6385 36.5961 44.5298 37.4991 44.37C39.2298 44.0634 40.7595 43.3486 42.0681 42.2186C43.5933 40.9019 44.6224 39.2906 45.0869 37.3458C45.3909 36.0746 45.4669 34.7849 45.4799 33.4907V33.2325C45.4799 33.1324 45.4406 11.2421 45.4369 10.9528C45.4268 10.158 45.3663 9.36913 45.2123 8.58708C45.0251 7.63407 44.7605 6.70546 44.289 5.84328C43.7912 4.93239 43.1676 4.11335 42.3963 3.39764C41.2148 2.30108 39.8513 1.52561 38.264 1.11541C36.8304 0.745007 35.3678 0.663001 33.8945 0.664285C33.8921 0.663942 33.8866 0.649475 33.8862 0.642456H11.5866C11.5862 0.649818 11.5859 0.65718 11.5854 0.664285C10.7492 0.679094 9.91187 0.673016 9.07998 0.772828C8.16866 0.882483 7.2661 1.04761 6.40352 1.35595C5.04486 1.84234 3.86442 2.59991 2.85608 3.6113C1.71367 4.75716 0.908396 6.08237 0.481129 7.62551C0.0999405 9.00233 0.0169816 10.4065 0.0149474 11.8207" fill="#FFFC00"/>
<path d="M22.9463 37.8109C22.8518 37.8109 22.7617 37.8076 22.6932 37.8044C22.6388 37.8089 22.5826 37.8109 22.5264 37.8109C20.542 37.8109 19.2151 36.9029 18.0443 36.1012C17.205 35.5274 16.4135 34.9857 15.4863 34.8364C15.0309 34.7633 14.5779 34.7262 14.1402 34.7262C13.3516 34.7262 12.7283 34.8446 12.2733 34.9308C11.9933 34.9836 11.7518 35.029 11.5652 35.029C11.3697 35.029 11.1323 34.9871 11.0333 34.66C10.9549 34.402 10.8986 34.152 10.8443 33.9113C10.7085 33.3098 10.6099 32.9426 10.3772 32.9078C7.88837 32.5361 6.41784 31.9886 6.12491 31.3255C6.09423 31.2559 6.07707 31.1858 6.07326 31.1164C6.06186 30.9188 6.20602 30.7454 6.40731 30.7131C8.38383 30.3981 10.1413 29.387 11.6311 27.7069C12.7852 26.4062 13.3519 25.1634 13.4128 25.0262C13.4154 25.02 13.4185 25.0135 13.4217 25.0076C13.7089 24.4437 13.766 23.9563 13.592 23.5596C13.2714 22.8276 12.2092 22.5014 11.5066 22.2856C11.3318 22.2321 11.1665 22.1815 11.0348 22.1309C10.4119 21.8927 9.38748 21.3895 9.52395 20.6951C9.62336 20.1886 10.3154 19.836 10.8747 19.836C11.03 19.836 11.1677 19.8623 11.2835 19.915C11.9155 20.2016 12.4841 20.3468 12.9731 20.3468C13.5813 20.3468 13.875 20.1227 13.946 20.059C13.9285 19.7451 13.9071 19.4131 13.8864 19.0991C13.8864 19.0988 13.8859 19.095 13.8859 19.095C13.7432 16.8972 13.5652 14.162 14.288 12.5935C16.4515 7.89851 21.0396 7.53342 22.3939 7.53342C22.43 7.53342 22.9841 7.52811 22.9841 7.52811C23.0092 7.52769 23.0363 7.52734 23.0644 7.52734C24.4224 7.52734 29.0201 7.89286 31.1849 12.5907C31.9077 14.1602 31.7295 16.8977 31.5863 19.0978L31.5796 19.2031C31.56 19.5019 31.5418 19.7846 31.5265 20.0587C31.5934 20.1183 31.8622 20.3237 32.409 20.3445C32.8752 20.3272 33.4109 20.1826 34.0008 19.9153C34.1832 19.8325 34.3851 19.8152 34.5222 19.8152C34.7294 19.8152 34.9403 19.8543 35.116 19.9252L35.1254 19.9288C35.626 20.1007 35.9538 20.4444 35.9609 20.8055C35.9672 21.1421 35.7087 21.6452 34.4376 22.131C34.3075 22.1809 34.1414 22.232 33.9659 22.2858C33.2626 22.5019 32.2014 22.8278 31.8807 23.5594C31.7064 23.9562 31.7638 24.4433 32.051 25.0071C32.0542 25.0133 32.0569 25.0195 32.06 25.026C32.1485 25.2267 34.2892 29.9511 39.0655 30.7127C39.2667 30.7452 39.4111 30.9187 39.3996 31.116C39.3954 31.1869 39.3777 31.2577 39.3467 31.327C39.0559 31.9864 37.5854 32.5331 35.0958 32.9053C34.8622 32.9402 34.7637 33.3058 34.6291 33.9041C34.5734 34.1513 34.5167 34.3935 34.4393 34.6481C34.3669 34.8875 34.2057 35.0045 33.947 35.0045H33.908C33.7395 35.0045 33.5008 34.9749 33.1997 34.9179C32.6735 34.8188 32.0833 34.7265 31.3328 34.7265C30.8952 34.7265 30.4422 34.7637 29.9863 34.8367C29.0601 34.986 28.2687 35.5268 27.4309 36.1C26.2578 36.9028 24.9305 37.8109 22.9463 37.8109Z" fill="white"/>
<path d="M23.0644 7.91429C24.3428 7.91429 28.7451 8.24668 30.8197 12.7484C31.5029 14.2307 31.3278 16.916 31.1873 19.073C31.1654 19.4153 31.1436 19.7471 31.1259 20.0639L31.1185 20.2001L31.2124 20.3016C31.2504 20.3423 31.6055 20.7015 32.3953 20.731L32.408 20.7317L32.4213 20.7315C32.9434 20.7122 33.5316 20.5552 34.1703 20.2656C34.2644 20.223 34.3896 20.2022 34.5221 20.2022C34.6731 20.2022 34.8335 20.2297 34.9659 20.2836L34.9858 20.2913C35.3208 20.4049 35.5575 20.6191 35.5612 20.8129C35.5631 20.9224 35.4785 21.3171 34.2912 21.7711C34.1752 21.8154 34.0224 21.8626 33.8454 21.9166C33.0727 22.1541 31.9055 22.5124 31.5126 23.4084C31.2914 23.9131 31.352 24.5087 31.6925 25.1785C31.8326 25.4949 34.038 30.303 39.0006 31.0944C38.9996 31.1172 38.9936 31.1421 38.9804 31.1715C38.8963 31.3632 38.3616 32.0257 35.0347 32.5225C34.5142 32.5997 34.3866 33.1645 34.2388 33.8211C34.1853 34.0562 34.131 34.2935 34.0564 34.5385C34.0336 34.6126 34.0293 34.6168 33.9473 34.6168C33.936 34.6168 33.9228 34.6168 33.9083 34.6168C33.7607 34.6168 33.5368 34.5872 33.2772 34.5378C32.8045 34.4487 32.1587 34.3394 31.3331 34.3394C30.8723 34.3394 30.3976 34.3782 29.9213 34.4552C28.9033 34.619 28.0754 35.1858 27.1985 35.7857C26.021 36.591 24.804 37.4243 22.947 37.4243C22.8659 37.4243 22.7867 37.4217 22.7074 37.4178L22.6865 37.417L22.6656 37.4185C22.62 37.4224 22.5741 37.4243 22.5273 37.4243C20.6706 37.4243 19.453 36.5912 18.276 35.7857C17.399 35.1858 16.5706 34.619 15.5527 34.4552C15.0769 34.3785 14.6018 34.3394 14.1413 34.3394C13.3159 34.3394 12.6692 34.4617 12.1975 34.5509C11.9379 34.6001 11.7132 34.6422 11.5661 34.6422C11.4456 34.6422 11.4433 34.6353 11.4179 34.5511C11.3432 34.3059 11.2887 34.0629 11.2355 33.8282C11.0873 33.171 10.9596 32.6031 10.4393 32.5258C7.11274 32.0285 6.57801 31.3649 6.49364 31.1737C6.48046 31.1436 6.47454 31.1179 6.47321 31.0951C11.4357 30.3043 13.6407 25.4961 13.7812 25.1785C14.1224 24.5092 14.1829 23.9137 13.961 23.4084C13.5681 22.5129 12.401 22.1541 11.6289 21.917C11.4514 21.8627 11.2986 21.8154 11.1824 21.7711C10.1798 21.3877 9.87145 21.0014 9.91726 20.7674C9.97041 20.4975 10.4538 20.2231 10.8757 20.2231C10.9705 20.2231 11.0537 20.2379 11.1151 20.2657C11.8003 20.5765 12.4258 20.7341 12.9744 20.7341C13.8368 20.7341 14.2206 20.3457 14.2618 20.3014L14.3553 20.2002L14.3478 20.0647C14.3304 19.7481 14.3089 19.4164 14.2862 19.0747C14.1462 16.9172 13.9711 14.2337 14.654 12.7513C16.7209 8.26611 21.1017 7.92037 22.3949 7.92037C22.4268 7.92037 22.989 7.9148 22.989 7.9148C23.012 7.91463 23.0376 7.91429 23.0644 7.91429ZM23.0644 7.14063H23.0629C23.0334 7.14063 23.0057 7.14062 22.9794 7.14097C22.7692 7.14302 22.4238 7.14627 22.3927 7.14662C21.6351 7.14662 20.1193 7.25019 18.4911 7.94579C17.5601 8.34324 16.7228 8.88064 16.0023 9.54311C15.1433 10.3324 14.4436 11.3056 13.9228 12.4361C13.1602 14.0913 13.3412 16.8792 13.4866 19.1197L13.4872 19.1232C13.5027 19.3631 13.5191 19.6137 13.534 19.8578C13.4222 19.9076 13.2408 19.96 12.9734 19.96C12.5432 19.96 12.0317 19.8269 11.4533 19.5646C11.2832 19.4879 11.089 19.4492 10.8747 19.4492C10.5303 19.4492 10.1674 19.5473 9.85252 19.7264C9.45639 19.9516 9.20043 20.2697 9.13092 20.6225C9.0851 20.8558 9.08731 21.3171 9.61664 21.7848C9.9078 22.0423 10.3355 22.2797 10.8876 22.4909C11.0324 22.5461 11.2044 22.5989 11.3865 22.6548C12.0184 22.8492 12.9748 23.1429 13.2242 23.711C13.3506 23.999 13.2962 24.3781 13.063 24.8362C13.0569 24.8487 13.0508 24.861 13.0452 24.8738C12.9869 25.0055 12.4432 26.1976 11.3278 27.4548C10.6941 28.1698 9.99597 28.7673 9.25412 29.2312C8.34864 29.7977 7.36887 30.168 6.34231 30.3317C5.93919 30.3957 5.65131 30.7433 5.67378 31.1384C5.68067 31.2522 5.70827 31.3657 5.75612 31.4755C5.75647 31.4762 5.75691 31.4769 5.75727 31.4775C5.92027 31.8465 6.29818 32.16 6.91259 32.4365C7.66338 32.774 8.78625 33.058 10.2497 33.2801C10.3237 33.4162 10.4004 33.7583 10.4536 33.9925C10.5092 34.2414 10.5672 34.4974 10.6499 34.7692C10.7392 35.0638 10.9706 35.4158 11.5652 35.4158C11.7906 35.4158 12.0497 35.3666 12.3498 35.3103C12.7893 35.2269 13.3902 35.113 14.1403 35.113C14.5562 35.113 14.9872 35.1484 15.421 35.2182C16.2572 35.3529 16.9781 35.8458 17.8122 36.4166C19.0331 37.2519 20.415 38.1974 22.5264 38.1974C22.5839 38.1974 22.6417 38.1956 22.6987 38.1917C22.7685 38.1949 22.855 38.1974 22.9463 38.1974C25.0583 38.1974 26.4399 37.2516 27.6594 36.417L27.6614 36.4153C28.4956 35.8451 29.2157 35.3529 30.0517 35.2182C30.4853 35.1485 30.9162 35.113 31.3323 35.113C32.0488 35.113 32.6162 35.2014 33.1228 35.297C33.4534 35.36 33.7103 35.3903 33.9075 35.3903L33.9267 35.3907H33.9467C34.3816 35.3907 34.7011 35.1597 34.8231 34.7554C34.9041 34.4892 34.962 34.2393 35.019 33.9861C35.0687 33.7667 35.1481 33.4148 35.2221 33.2773C36.6865 33.0547 37.8089 32.7714 38.5598 32.4339C39.1728 32.1587 39.5503 31.8456 39.7143 31.4781C39.7634 31.3679 39.7922 31.2537 39.7986 31.1375C39.8217 30.7431 39.5334 30.3948 39.13 30.3308C34.5677 29.603 32.5124 25.0658 32.4274 24.873C32.4219 24.8604 32.4157 24.8478 32.4092 24.8355C32.176 24.3772 32.1222 23.9986 32.2486 23.71C32.4975 23.1424 33.4533 22.8487 34.0857 22.6544C34.2687 22.5986 34.4413 22.5455 34.585 22.4906C35.2076 22.2526 35.6525 21.9944 35.9461 21.7012C36.2967 21.3517 36.3649 21.0169 36.3607 20.7977C36.35 20.2675 35.9312 19.7964 35.2651 19.5657C35.0401 19.4756 34.7835 19.4281 34.5222 19.4281C34.3444 19.4281 34.081 19.4517 33.8317 19.5644C33.2979 19.8061 32.8198 19.9383 32.4093 19.9571C32.191 19.9464 32.038 19.9006 31.9388 19.8569C31.9513 19.6501 31.9651 19.4376 31.9793 19.2161L31.9852 19.1212C32.1314 16.8793 32.3131 14.0892 31.5501 12.4328C31.0271 11.2984 30.3249 10.3227 29.4625 9.53164C28.7392 8.86874 27.899 8.33143 26.9647 7.93424C25.3388 7.24377 23.823 7.14063 23.0644 7.14063Z" fill="#020202"/>
</svg>
